# Blender v2.92.0 OBJ File: ''
# www.blender.org
mtllib plane.mtl
o Plane
v -665.187683 0.000000 665.187683
v 665.187683 0.000000 665.187683
v -665.187683 0.000000 -665.187683
v 665.187683 0.000000 -665.187683
v -665.187683 4.056883 665.187683
v 665.187683 4.056883 665.187683
v -665.187683 4.056883 -665.187683
v 665.187683 4.056883 -665.187683
vt 0.000000 0.000000
vt 0.000000 1.000000
vt 1.000000 1.000000
vt 1.000000 0.000000
vt 0.000000 0.000000
vt 1.000000 0.000000
vt 1.000000 1.000000
vt 0.000000 1.000000
vn 0.0000 -1.0000 0.0000
vn 0.0000 1.0000 0.0000
vn 0.0000 0.0000 -1.0000
vn 0.0000 0.0000 1.0000
vn 1.0000 0.0000 0.0000
vn -1.0000 0.0000 0.0000
usemtl Material.001
s off
f 1/1/1 3/2/1 4/3/1 2/4/1
f 5/5/2 6/6/2 8/7/2 7/8/2
f 4/3/3 3/2/3 7/8/3 8/7/3
f 1/1/4 2/4/4 6/6/4 5/5/4
f 2/4/5 4/3/5 8/7/5 6/6/5
f 3/2/6 1/1/6 5/5/6 7/8/6
